<svg xmlns="http://www.w3.org/2000/svg" width="26.504" height="30.512" viewBox="0 0 7.013 8.073"><g transform="matrix(.52917 0 0 .52917 13.315 -217.27)"><circle cx="-22.033" cy="420.011" r="2.599" style="fill:none;stroke:#000;stroke-width:1.05833328;stroke-linecap:round;stroke-linejoin:round;stroke-miterlimit:4;stroke-dasharray:none"/><path d="M-20.386 417.901a4.09 4.09 0 0 1-1.026-2.71 4.09 4.09 0 0 1 4.09-4.09 4.09 4.09 0 0 1 4.09 4.09v0a4.09 4.09 0 0 1-1.115 2.806" style="fill:none;stroke:#000;stroke-width:1.02485323;stroke-linecap:round;stroke-linejoin:round;stroke-miterlimit:4;stroke-dasharray:none"/><path d="M-12.445 424.736a2.6 2.6 0 0 1-1.637.58c-1.435 0-2.63-1.164-2.6-2.6.034-1.6 2.907-5.276 3.32-6.453" style="fill:none;stroke:#000;stroke-width:1.05833328;stroke-linecap:round;stroke-linejoin:round;stroke-miterlimit:4;stroke-dasharray:none"/></g></svg>