<svg xmlns="http://www.w3.org/2000/svg" width="31.706" height="38.535" viewBox="0 0 8.389 10.196"><path d="M4.82 412.991v11.19m4.732-11.14v11.189" style="fill:none;stroke:#000;stroke-width:1.05833328;stroke-linecap:round;stroke-linejoin:round;stroke-miterlimit:4;stroke-dasharray:none;stroke-opacity:1" transform="translate(-1.568 -216.416) scale(.52917)"/><path d="m14.15 414.185-.023 11.525c.11 1.051.61 1.52 1.087 2.022" style="fill:none;stroke:#000;stroke-width:1.00807619;stroke-linecap:round;stroke-linejoin:round;stroke-miterlimit:4;stroke-dasharray:none;stroke-opacity:1" transform="translate(-1.568 -216.416) scale(.52917)"/><path d="M3.496 409.542c.924 1.197 1.407 3.056 1.323 5.765 3.39-10.538 3.704-3.917 4.867-2.032 1.992-3.796 4.314-7.11 4.583 3.024 1.338-2.376 3.197-5.577 4.016.708-.346 7.746-7.465 9.828-7.465 9.828" style="fill:none;stroke:#000;stroke-width:1.05833328;stroke-linecap:round;stroke-linejoin:miter;stroke-miterlimit:4;stroke-dasharray:none;stroke-opacity:1" transform="translate(-1.568 -216.416) scale(.52917)"/><path d="M3.496 409.542c.924 1.197 1.407 3.056 1.323 5.765 3.39-10.538 3.704-3.917 4.867-2.032 1.992-3.796 4.314-7.11 4.583 3.024 1.338-2.376 3.197-5.577 4.016.708-.346 7.746-7.465 9.828-7.465 9.828" style="fill:none;stroke:#000;stroke-width:1.05833328;stroke-linecap:round;stroke-linejoin:miter;stroke-miterlimit:4;stroke-dasharray:none;stroke-opacity:1" transform="translate(-1.568 -216.416) scale(.52917)"/></svg>